# 3ds Max Wavefront OBJ Exporter v0.97b - (c)2007 guruware
# File Created: 19.11.2013 22:35:41

mtllib fence_01.mtl

#
# object fence_01
#

v  -1.9763 28.2167 -22.8451
v  1.6527 28.2167 -22.8451
v  1.6527 28.4144 -25.9449
v  -1.9763 28.4144 -25.9449
v  1.9530 -0.0409 -25.1953
v  1.0988 15.4740 -24.0611
v  -2.0684 15.4740 -24.0611
v  -2.0389 -0.0409 -25.1953
v  1.9530 0.1568 -28.2951
v  1.0988 15.6309 -26.5204
v  -2.0389 0.1568 -28.2951
v  -2.0684 15.6309 -26.5204
v  -1.9331 28.4748 24.7582
v  1.5938 28.4304 25.6119
v  2.3183 28.1524 22.6043
v  -1.2086 28.1969 21.7505
v  1.0801 0.1437 27.5376
v  0.7282 15.6592 26.1680
v  -2.3498 15.6980 25.4229
v  -2.7994 0.1926 26.5985
v  1.8047 -0.1342 24.5300
v  1.3030 15.4387 23.7818
v  -2.0749 -0.0854 23.5909
v  -1.7750 15.4775 23.0367
v  -2.9330 28.2959 -8.4437
v  0.6827 28.5861 -8.5517
v  0.6227 28.1882 -11.6316
v  -2.9931 27.8980 -11.5236
v  3.3272 0.5153 -5.5278
v  1.1862 15.8427 -7.3209
v  -1.9694 15.5895 -7.2266
v  -0.6502 0.1961 -5.4090
v  3.2671 0.1173 -8.6077
v  1.1385 15.5270 -9.7644
v  -0.7103 -0.2019 -8.4889
v  -2.0171 15.2738 -9.6702
v  -2.9330 19.4636 29.1963
v  0.6827 19.5512 29.4932
v  0.6227 22.6513 29.3103
v  -2.9931 22.5637 29.0133
v  1.4207 19.0079 -1.0676
v  1.1862 20.6583 16.6951
v  -1.9694 20.5819 16.4360
v  -1.7612 18.9976 -1.0649
v  1.4207 22.1107 -1.1534
v  1.1385 23.1179 16.5500
v  -1.7612 22.1004 -1.1507
v  -2.0171 23.0415 16.2908
v  -2.9330 23.2084 -29.1800
v  0.6827 23.1396 -29.4819
v  0.6227 20.0341 -29.4932
v  -2.9931 20.1029 -29.1914
v  1.1862 21.8054 -16.6874
v  -1.9694 21.8655 -16.4240
v  1.1385 19.3416 -16.6964
v  -2.0171 19.4016 -16.4330
v  -0.7563 28.3743 5.2511
v  -4.3040 27.8179 5.7748
v  -3.8734 27.9643 8.8474
v  -0.3258 28.5207 8.3238
v  -0.0290 -0.1852 7.0627
v  -1.6791 15.2932 6.4105
v  1.4171 15.7788 5.9535
v  3.8734 0.4269 6.4867
v  0.4016 -0.0388 10.1353
v  -1.3375 15.4094 8.8483
v  4.3040 0.5733 9.5593
v  1.7587 15.8950 8.3913
# 68 vertices

vn 0.0000 0.9995 0.0319
vn 0.0000 -0.1447 0.9895
vn 0.0000 -0.1660 0.9861
vn 0.9940 0.1090 0.0035
vn 0.9998 0.0190 0.0006
vn 1.0000 0.0032 0.0001
vn 0.0000 0.2236 -0.9747
vn 0.0000 0.1572 -0.9876
vn 0.0000 0.1574 -0.9875
vn -1.0000 -0.0038 -0.0001
vn -1.0000 0.0061 0.0002
vn -1.0000 0.0046 0.0001
vn 0.0000 -0.1875 0.9823
vn 0.9963 -0.0861 -0.0027
vn 0.0000 0.0897 -0.9960
vn -0.9999 0.0144 0.0005
vn 0.0165 0.9990 -0.0422
vn -0.2313 0.1590 0.9598
vn -0.2322 0.1373 0.9629
vn -0.2322 0.1377 0.9629
vn 0.9696 0.0845 0.2297
vn 0.9718 -0.0189 0.2350
vn 0.9721 -0.0072 0.2345
vn 0.2341 -0.0780 -0.9691
vn 0.2319 -0.1446 -0.9619
vn 0.2319 -0.1458 -0.9617
vn -0.9718 0.0207 -0.2351
vn -0.9715 0.0292 -0.2354
vn -0.9714 0.0303 -0.2354
vn -0.2330 0.1157 0.9656
vn 0.9651 -0.1101 0.2376
vn 0.2286 -0.2125 -0.9500
vn -0.9710 0.0388 -0.2357
vn -0.0419 0.9971 -0.0636
vn 0.0197 0.2330 0.9723
vn 0.0206 0.2138 0.9767
vn 0.0207 0.2107 0.9773
vn 0.9646 0.2611 -0.0357
vn 0.9868 0.1595 -0.0295
vn 0.9837 0.1770 -0.0306
vn -0.0233 -0.1547 -0.9877
vn -0.0201 -0.2245 -0.9743
vn -0.0205 -0.2150 -0.9764
vn -0.9863 -0.1620 0.0297
vn -0.9876 -0.1541 0.0292
vn -0.9879 -0.1525 0.0291
vn 0.0216 0.1913 0.9813
vn 0.9970 0.0741 -0.0242
vn -0.0172 -0.2841 -0.9586
vn -0.9891 -0.1445 0.0286
vn -0.0827 0.1136 0.9901
vn 0.0024 -0.9990 0.0454
vn 0.0121 -0.9999 0.0004
vn 0.0115 -0.9999 0.0030
vn 0.0017 -0.9990 0.0452
vn 1.0000 0.0008 -0.0012
vn 0.9988 0.0419 0.0270
vn 0.9987 0.0410 0.0289
vn 1.0000 -0.0010 -0.0007
vn -0.0026 0.9996 -0.0283
vn -0.0117 0.9999 -0.0052
vn -0.0113 0.9999 -0.0040
vn -0.0016 0.9996 -0.0285
vn -1.0000 -0.0009 0.0007
vn -0.9980 -0.0441 -0.0461
vn -0.9982 -0.0424 -0.0414
vn -1.0000 0.0010 0.0013
vn 0.0156 -0.9990 -0.0426
vn 0.9982 0.0435 0.0411
vn -0.0136 0.9998 0.0177
vn -0.9959 -0.0477 -0.0773
vn -0.0831 0.0105 -0.9965
vn -0.0003 1.0000 -0.0080
vn 0.0113 0.9997 0.0219
vn 0.0105 0.9997 0.0202
vn -0.0016 1.0000 -0.0077
vn 0.9988 -0.0384 -0.0298
vn 0.9989 -0.0373 -0.0299
vn 0.0001 -0.9999 -0.0110
vn -0.0112 -0.9997 -0.0196
vn -0.0104 -0.9997 -0.0199
vn 0.0016 -0.9999 -0.0107
vn -0.9982 0.0383 0.0456
vn -0.9983 0.0371 0.0452
vn 0.0138 0.9986 0.0515
vn 0.9984 -0.0383 -0.0413
vn -0.0117 -0.9996 -0.0266
vn -0.9963 0.0380 0.0773
vn -0.0800 0.9967 -0.0125
vn -0.1365 -0.1120 -0.9843
vn -0.1342 -0.1362 -0.9816
vn -0.1348 -0.1304 -0.9823
vn -0.9706 -0.1951 0.1407
vn -0.9501 -0.2789 0.1398
vn -0.9468 -0.2901 0.1396
vn 0.1286 0.1911 0.9731
vn 0.1344 0.1342 0.9818
vn 0.1361 0.1160 0.9839
vn 0.9459 0.2930 -0.1395
vn 0.9432 0.3016 -0.1394
vn 0.9435 0.3006 -0.1394
vn -0.1324 -0.1549 -0.9790
vn -0.9184 -0.3710 0.1375
vn 0.1414 0.0573 0.9883
vn 0.9408 0.3091 -0.1392
# 105 vertex normals

vt 0.6464 0.6713 0.0000
vt 0.6376 0.4613 0.0000
vt 0.8337 0.4544 0.0000
vt 0.8425 0.6645 0.0000
vt 0.2298 0.0454 0.0000
vt 0.2770 0.4183 0.0000
vt 0.1407 0.4472 0.0000
vt 0.0370 0.0934 0.0000
vt 0.3846 0.0275 0.0000
vt 0.3857 0.4032 0.0000
vt 0.5805 0.0521 0.0000
vt 0.5197 0.4172 0.0000
vt 0.7317 0.0934 0.0000
vt 0.6216 0.4444 0.0000
vt 0.3175 0.5920 0.0000
vt 0.1831 0.6219 0.0000
vt 0.3838 0.5490 0.0000
vt 0.4745 0.5844 0.0000
vt 0.5858 0.6161 0.0000
# 19 texture coords

g fence_01
usemtl 02___Defaultsssasawewessds
s 4
f 1/1/1 2/2/1 3/3/1 4/4/1 
s 8
f 5/5/2 6/6/3 7/7/3 8/8/2 
s 16
f 9/9/4 10/10/5 6/6/6 5/5/4 
s 32
f 11/11/7 12/12/8 10/10/9 9/9/7 
s 64
f 8/13/10 7/14/11 12/12/12 11/11/10 
s 8
f 2/15/13 1/16/13 7/7/3 6/6/3 
s 16
f 3/17/14 2/15/14 6/6/6 10/10/5 
s 32
f 4/18/15 3/17/15 10/10/9 12/12/8 
s 64
f 1/19/16 4/18/16 12/12/12 7/14/11 
s 4
f 13/1/17 14/2/17 15/3/17 16/4/17 
s 8
f 17/5/18 18/6/19 19/7/20 20/8/18 
s 16
f 21/9/21 22/10/22 18/6/23 17/5/21 
s 32
f 23/11/24 24/12/25 22/10/26 21/9/24 
s 64
f 20/13/27 19/14/28 24/12/29 23/11/27 
s 8
f 14/15/30 13/16/30 19/7/20 18/6/19 
s 16
f 15/17/31 14/15/31 18/6/23 22/10/22 
s 32
f 16/18/32 15/17/32 22/10/26 24/12/25 
s 64
f 13/19/33 16/18/33 24/12/29 19/14/28 
s 4
f 25/1/34 26/2/34 27/3/34 28/4/34 
s 8
f 29/5/35 30/6/36 31/7/37 32/8/35 
s 16
f 33/9/38 34/10/39 30/6/40 29/5/38 
s 32
f 35/11/41 36/12/42 34/10/43 33/9/41 
s 64
f 32/13/44 31/14/45 36/12/46 35/11/44 
s 8
f 26/15/47 25/16/47 31/7/37 30/6/36 
s 16
f 27/17/48 26/15/48 30/6/40 34/10/39 
s 32
f 28/18/49 27/17/49 34/10/43 36/12/42 
s 64
f 25/19/50 28/18/50 36/12/46 31/14/45 
s 4
f 37/1/51 38/2/51 39/3/51 40/4/51 
s 8
f 41/5/52 42/6/53 43/7/54 44/8/55 
s 16
f 45/9/56 46/10/57 42/6/58 41/5/59 
s 32
f 47/11/60 48/12/61 46/10/62 45/9/63 
s 64
f 44/13/64 43/14/65 48/12/66 47/11/67 
s 8
f 38/15/68 37/16/68 43/7/54 42/6/53 
s 16
f 39/17/69 38/15/69 42/6/58 46/10/57 
s 32
f 40/18/70 39/17/70 46/10/62 48/12/61 
s 64
f 37/19/71 40/18/71 48/12/66 43/14/65 
s 4
f 49/1/72 50/2/72 51/3/72 52/4/72 
s 8
f 45/5/73 53/6/74 54/7/75 47/8/76 
s 16
f 41/9/59 55/10/77 53/6/78 45/5/56 
s 32
f 44/11/79 56/12/80 55/10/81 41/9/82 
s 64
f 47/13/67 54/14/83 56/12/84 44/11/64 
s 8
f 50/15/85 49/16/85 54/7/75 53/6/74 
s 16
f 51/17/86 50/15/86 53/6/78 55/10/77 
s 32
f 52/18/87 51/17/87 55/10/81 56/12/80 
s 64
f 49/19/88 52/18/88 56/12/84 54/14/83 
s 4
f 57/1/89 58/2/89 59/3/89 60/4/89 
s 8
f 61/5/90 62/6/91 63/7/92 64/8/90 
s 16
f 65/9/93 66/10/94 62/6/95 61/5/93 
s 32
f 67/11/96 68/12/97 66/10/98 65/9/96 
s 64
f 64/13/99 63/14/100 68/12/101 67/11/99 
s 8
f 58/15/102 57/16/102 63/7/92 62/6/91 
s 16
f 59/17/103 58/15/103 62/6/95 66/10/94 
s 32
f 60/18/104 59/17/104 66/10/98 68/12/97 
s 64
f 57/19/105 60/18/105 68/12/101 63/14/100 
# 54 polygons

